<?xml version="1.0" standalone="no"?>
<!DOCTYPE svg PUBLIC "-//W3C//DTD SVG 20010904//EN"
 "http://www.w3.org/TR/2001/REC-SVG-20010904/DTD/svg10.dtd">
<svg version="1.0" xmlns="http://www.w3.org/2000/svg"
 width="300.000000pt" height="300.000000pt" viewBox="0 0 300.000000 300.000000"
 preserveAspectRatio="xMidYMid meet">

<g transform="translate(0.000000,300.000000) scale(0.100000,-0.100000)"
fill="#000000" stroke="none">
<path d="M1204 2829 c-24 -8 -39 -27 -49 -57 -17 -57 80 -97 121 -51 19 22 19
22 -3 10 -30 -15 -40 -14 -63 9 -45 45 -7 100 45 66 21 -14 25 -14 25 -2 0 27
-39 39 -76 25z"/>
<path d="M1464 2822 c-5 -4 -10 -28 -10 -54 -1 -46 0 -48 28 -48 26 0 28 3 28
40 0 22 5 40 10 40 6 0 10 -18 10 -41 0 -38 1 -40 28 -37 23 3 27 7 24 33 -6
71 -8 74 -60 73 -27 0 -53 -3 -58 -6z"/>
<path d="M1622 2817 c-5 -6 -12 -29 -16 -49 -6 -31 -3 -39 13 -47 34 -19 60
-13 67 14 5 19 0 30 -17 45 -13 10 -19 19 -13 20 5 0 15 -5 21 -11 8 -8 13 -7
18 1 9 15 -3 26 -36 34 -16 3 -31 1 -37 -7z m13 -67 c3 -5 1 -10 -4 -10 -6 0
-11 5 -11 10 0 6 2 10 4 10 3 0 8 -4 11 -10z"/>
<path d="M1330 2800 c-11 -11 -20 -26 -20 -33 0 -24 31 -57 54 -57 29 0 76 36
76 58 -1 50 -72 70 -110 32z m55 -31 c4 -11 4 -23 0 -27 -7 -7 -25 17 -25 36
0 20 18 14 25 -9z"/>
<path d="M1732 2794 c-25 -18 -30 -65 -8 -83 18 -15 78 -10 84 7 2 7 -4 11
-19 10 -12 -2 -24 3 -26 9 -3 9 4 11 26 7 27 -6 31 -4 31 14 0 25 -25 52 -48
52 -10 0 -28 -7 -40 -16z m48 -14 c0 -5 -4 -10 -10 -10 -5 0 -10 5 -10 10 0 6
5 10 10 10 6 0 10 -4 10 -10z"/>
<path d="M1840 2755 c0 -14 -5 -34 -12 -45 -15 -23 -11 -28 30 -36 29 -6 31
-5 29 22 -2 26 1 29 24 26 17 -2 29 3 33 13 9 23 -3 38 -25 32 -11 -3 -19 -1
-19 4 0 5 -13 9 -30 9 -25 0 -30 -4 -30 -25z"/>
<path d="M996 2735 c-16 -24 -16 -28 -2 -38 8 -7 20 -24 25 -39 12 -32 41 -37
65 -12 20 20 21 38 1 30 -20 -7 -37 33 -22 52 12 15 9 19 -24 27 -21 5 -29 1
-43 -20z"/>
<path d="M1963 2736 c3 -7 9 -34 12 -60 4 -25 12 -46 19 -46 6 0 26 14 45 30
18 17 38 30 42 30 16 0 10 18 -8 24 -11 4 -22 1 -29 -8 -16 -22 -27 -20 -19 3
4 14 0 23 -14 30 -28 16 -54 14 -48 -3z"/>
<path d="M904 2675 c-4 -8 -10 -13 -14 -10 -4 2 -15 -4 -25 -15 -16 -17 -16
-21 -1 -42 9 -12 16 -30 16 -40 0 -21 1 -21 35 -6 29 13 30 16 10 42 -8 11
-15 26 -15 33 0 23 18 14 32 -17 15 -34 25 -37 54 -15 12 9 15 17 9 22 -6 5
-18 20 -28 36 -19 30 -64 37 -73 12z"/>
<path d="M2095 2671 c-8 -14 10 -22 30 -14 12 4 16 2 13 -7 -2 -8 -19 -14 -39
-14 -49 -1 -46 -32 6 -61 43 -24 64 -23 64 3 0 9 3 30 7 45 5 21 2 31 -12 42
-22 16 -60 19 -69 6z"/>
<path d="M2213 2617 c3 -7 -1 -21 -9 -32 -20 -28 -17 -63 7 -75 27 -15 56 -5
40 14 -17 20 -2 46 25 46 13 0 24 5 24 10 0 6 -4 10 -10 10 -5 0 -10 9 -10 20
0 16 -7 20 -36 20 -25 0 -35 -4 -31 -13z"/>
<path d="M772 2600 c-30 -28 -28 -65 4 -87 24 -15 29 -15 53 -2 14 8 28 25 30
39 3 25 3 25 -18 6 -12 -11 -24 -16 -27 -13 -4 4 4 15 17 26 20 16 21 21 10
35 -18 22 -43 20 -69 -4z"/>
<path d="M2330 2576 c0 -16 27 -29 41 -20 13 8 -9 34 -27 34 -8 0 -14 -6 -14
-14z"/>
<path d="M2292 2530 c-8 -17 -20 -30 -28 -30 -19 0 -18 -14 4 -33 17 -16 64
-25 49 -10 -4 3 5 22 19 40 27 35 25 46 -11 57 -16 4 -23 -1 -33 -24z"/>
<path d="M687 2539 c-9 -6 -17 -17 -17 -24 0 -8 -7 -15 -15 -15 -8 0 -20 -9
-27 -20 -7 -11 -18 -20 -25 -20 -7 0 -17 -9 -23 -19 -8 -16 -5 -25 15 -45 43
-43 26 -64 -22 -26 -33 26 -49 25 -64 -2 -7 -13 -18 -27 -24 -33 -26 -21 -26
-45 0 -55 14 -5 28 -17 31 -25 9 -21 31 -19 44 5 9 17 6 24 -17 44 -15 13 -25
28 -20 32 4 4 20 -5 37 -21 l29 -28 17 29 c9 16 39 46 65 67 27 21 49 43 49
48 0 5 -9 18 -21 30 -11 11 -19 23 -16 25 8 8 37 -8 37 -21 0 -23 17 -26 41
-6 l23 19 -24 26 c-35 38 -53 46 -73 35z m-29 -110 c7 -12 11 -24 8 -27 -6 -6
-35 27 -36 41 0 14 15 7 28 -14z"/>
<path d="M2352 2484 c-28 -19 -29 -57 -2 -84 22 -22 69 -27 88 -8 21 21 14 65
-14 87 -32 25 -43 26 -72 5z m58 -30 c0 -15 -22 -44 -31 -39 -11 7 7 45 21 45
6 0 10 -3 10 -6z"/>
<path d="M2470 2399 c0 -6 -6 -17 -14 -25 -8 -8 -19 -14 -25 -14 -17 0 -13
-25 7 -43 17 -16 20 -15 42 10 17 20 25 23 28 13 3 -7 -7 -23 -22 -35 -26 -21
-26 -22 -8 -38 25 -22 29 -22 57 11 30 33 31 58 5 74 -11 7 -20 18 -20 25 0 7
-9 17 -19 23 -25 13 -31 13 -31 -1z"/>
<path d="M2007 2350 c-32 -25 -64 -91 -72 -151 -6 -41 7 -123 29 -179 5 -11
-10 -23 -57 -43 -126 -55 -250 -181 -316 -322 -36 -76 -51 -134 -60 -229 l-6
-69 -115 -2 c-197 -3 -322 -55 -460 -194 -131 -131 -191 -266 -202 -451 -2
-45 0 -55 14 -58 12 -2 18 6 22 30 3 18 12 73 20 123 22 129 77 238 170 331
85 85 135 118 237 155 118 43 305 58 314 25 1 -6 8 -42 15 -81 39 -216 168
-382 376 -483 53 -26 127 -48 147 -44 9 2 10 -6 11 -93 1 -55 4 -70 16 -70 11
0 18 19 25 75 l10 75 78 -3 c64 -2 77 0 77 13 0 11 -11 15 -47 15 -27 0 -64 3
-83 6 l-35 6 -17 86 c-49 249 -241 452 -492 518 l-66 18 0 41 c0 60 33 175 75
262 49 102 167 221 271 276 40 20 78 37 86 37 8 0 32 -32 54 -71 21 -39 57
-89 79 -111 47 -47 127 -88 172 -88 33 0 139 35 147 49 7 11 -112 88 -149 97
-40 9 -265 123 -265 134 0 12 93 29 175 32 l70 2 23 -41 c35 -63 85 -103 130
-103 20 1 48 7 62 14 24 14 22 15 -85 68 -81 39 -109 57 -107 70 1 9 -2 20 -9
23 -6 5 3 16 24 29 55 34 92 69 110 105 19 39 18 44 -23 61 -25 10 -34 10 -54
-4 -44 -29 -76 -81 -83 -135 -6 -51 -6 -51 -42 -51 -20 -1 -65 -7 -101 -15
-95 -21 -96 -20 -58 28 69 87 118 173 130 231 14 71 9 76 -78 76 -46 0 -68 -5
-87 -20z m-382 -1050 c143 -49 282 -160 354 -283 38 -65 91 -214 91 -257 l0
-28 -47 13 c-141 38 -277 131 -355 243 -48 69 -95 172 -108 237 -6 33 -14 68
-16 78 -7 22 9 22 81 -3z"/>
<path d="M1635 1211 c-6 -11 9 -23 19 -14 9 9 7 23 -3 23 -6 0 -12 -4 -16 -9z"/>
<path d="M418 2250 c-26 -16 -33 -68 -12 -91 37 -41 94 -10 96 51 1 45 -40 65
-84 40z m38 -44 c10 -8 17 -16 14 -19 -8 -8 -50 11 -50 23 0 14 13 13 36 -4z"/>
<path d="M2597 2212 c-10 -10 -17 -28 -17 -40 0 -26 20 -72 32 -72 5 0 4 10
-3 21 -16 31 17 74 57 74 25 0 29 -4 32 -32 2 -18 7 -33 12 -33 18 0 19 18 4
49 -25 50 -87 67 -117 33z m23 -12 c0 -5 -5 -10 -11 -10 -5 0 -7 5 -4 10 3 6
8 10 11 10 2 0 4 -4 4 -10z"/>
<path d="M350 2144 c0 -8 -7 -22 -15 -30 -22 -23 -19 -52 6 -56 23 -3 48 -33
37 -43 -3 -3 -22 2 -42 12 -32 15 -38 15 -46 3 -16 -24 -11 -50 8 -50 10 0 28
-7 41 -17 23 -15 25 -15 37 2 8 10 14 25 14 33 0 8 9 25 20 39 28 36 25 49
-11 57 -28 5 -29 7 -15 21 8 9 13 22 10 30 -8 20 -44 19 -44 -1z"/>
<path d="M2644 2133 c4 -7 2 -13 -3 -13 -6 0 -11 -7 -11 -15 0 -8 4 -15 9 -15
5 0 16 -2 24 -5 21 -9 17 22 -6 42 -11 10 -17 12 -13 6z"/>
<path d="M2704 2067 c-3 -9 -19 -19 -35 -22 -32 -7 -38 -29 -14 -61 14 -19 14
-19 30 4 20 27 31 28 38 2 6 -21 31 -27 43 -9 3 6 1 16 -5 22 -6 6 -11 18 -11
27 0 9 -9 25 -20 35 -17 16 -20 16 -26 2z"/>
<path d="M250 2039 c-9 -16 -9 -24 -1 -32 12 -12 31 6 31 30 0 22 -19 24 -30
2z"/>
<path d="M256 1953 c-4 -10 -1 -20 9 -25 21 -13 19 -31 -4 -23 -14 4 -21 -1
-29 -24 -6 -17 -8 -32 -4 -34 4 -2 31 1 60 6 42 7 52 12 52 28 0 10 -4 19 -9
19 -5 0 -19 16 -32 35 -27 39 -34 42 -43 18z"/>
<path d="M2707 1932 c-20 -22 -21 -33 -6 -65 24 -52 90 -52 103 -1 15 57 -59
108 -97 66z m63 -36 c0 -15 -29 -30 -39 -20 -3 3 3 12 13 20 24 17 26 17 26 0z"/>
<path d="M2775 1806 c-41 -22 -44 -29 -30 -91 9 -44 16 -47 68 -29 41 14 47
19 41 38 -9 30 -11 31 -39 18 -33 -15 -48 -15 -43 1 3 6 18 14 34 17 24 5 28
10 26 30 -4 37 -13 39 -57 16z"/>
<path d="M211 1801 c-6 -11 -8 -27 -5 -35 3 -9 1 -16 -6 -16 -6 0 -10 -11 -8
-27 2 -22 9 -28 31 -30 16 -1 35 -7 42 -13 11 -9 16 -6 25 10 16 29 7 48 -25
52 -14 2 -24 8 -23 13 2 6 5 9 8 8 48 -16 57 -14 62 11 6 31 5 32 -49 41 -35
5 -43 4 -52 -14z"/>
<path d="M640 1733 c-58 -2 -109 -8 -114 -13 -6 -6 -2 -18 10 -31 16 -18 19
-36 18 -115 -1 -79 -4 -97 -19 -108 -37 -27 -7 -36 125 -36 122 0 130 1 144
22 19 26 21 74 5 84 -7 4 -22 -7 -36 -25 -21 -26 -31 -31 -68 -31 -40 0 -44 2
-50 30 -4 16 -4 34 0 40 11 17 37 11 42 -10 3 -11 11 -20 19 -20 30 0 33 122
3 128 -10 2 -19 -5 -22 -18 -3 -12 -13 -20 -27 -20 -18 0 -21 5 -18 38 3 35 5
37 40 40 27 2 43 -3 57 -17 32 -32 51 -27 51 12 0 36 -16 58 -39 55 -9 -1 -63
-4 -121 -5z"/>
<path d="M935 1726 c-97 -45 -128 -153 -68 -233 44 -60 108 -79 186 -56 57 16
77 34 77 70 0 27 -6 28 -51 10 -67 -27 -129 17 -129 92 0 49 9 61 46 61 26 0
39 -8 61 -35 29 -36 51 -43 71 -23 15 15 15 68 -1 89 -21 28 -149 45 -192 25z"/>
<path d="M1260 1729 c-96 -40 -130 -155 -70 -237 24 -33 40 -44 82 -56 73 -21
123 -9 166 41 18 21 40 45 48 54 7 9 14 21 14 27 0 29 -90 43 -144 22 -31 -11
-34 -40 -6 -47 23 -6 27 -31 6 -39 -59 -23 -118 124 -68 169 25 23 69 21 90
-4 27 -32 51 -42 68 -28 17 14 19 73 2 87 -19 15 -159 24 -188 11z"/>
<path d="M154 1662 c-6 -4 -14 -32 -17 -62 l-7 -55 58 1 c31 1 60 -3 63 -8 4
-6 11 16 17 48 11 65 9 74 -16 73 -11 0 -12 -3 -4 -6 6 -2 12 -20 12 -39 0
-30 -3 -34 -25 -34 -14 0 -25 5 -25 12 0 9 -3 9 -11 1 -6 -6 -19 -8 -30 -6
-21 6 -26 42 -7 61 14 14 7 24 -8 14z"/>
<path d="M2828 1659 c-2 -6 -25 -11 -51 -12 -49 -2 -62 -14 -51 -49 3 -10 13
-17 21 -16 9 2 17 -5 19 -17 3 -22 30 -45 54 -45 8 0 26 7 38 16 19 13 22 22
17 47 -13 68 -37 106 -47 76z m12 -68 c0 -5 -6 -11 -12 -14 -18 -6 -39 3 -32
14 7 12 44 12 44 0z"/>
<path d="M195 1620 c3 -5 11 -10 16 -10 6 0 7 5 4 10 -3 6 -11 10 -16 10 -6 0
-7 -4 -4 -10z"/>
<path d="M463 839 c-26 -9 -47 -44 -37 -62 22 -38 35 -45 65 -35 37 13 53 41
39 68 -15 27 -41 39 -67 29z m45 -46 c-2 -22 -9 -29 -30 -31 -24 -3 -28 0 -28
22 0 25 11 34 43 35 14 1 18 -5 15 -26z"/>
<path d="M515 735 c-35 -33 -37 -36 -23 -57 9 -13 23 -24 32 -26 21 -4 76 35
76 55 0 12 -8 9 -35 -11 -57 -44 -79 -11 -24 35 19 16 28 29 21 33 -6 3 -27
-10 -47 -29z"/>
<path d="M2565 730 c-3 -5 1 -10 10 -10 9 0 13 5 10 10 -3 6 -8 10 -10 10 -2
0 -7 -4 -10 -10z"/>
<path d="M2540 690 c0 -5 5 -10 10 -10 6 0 10 5 10 10 0 6 -4 10 -10 10 -5 0
-10 -4 -10 -10z"/>
<path d="M572 645 c-26 -25 -32 -35 -20 -35 9 0 20 5 23 10 13 20 24 -1 18
-35 -3 -22 -2 -35 5 -35 6 0 12 10 14 23 2 12 9 23 16 23 6 1 17 2 22 3 17 2
11 47 -8 64 -25 23 -27 22 -70 -18z m66 -13 c2 -7 -3 -12 -12 -12 -9 0 -16 7
-16 16 0 17 22 14 28 -4z"/>
<path d="M2401 666 c-19 -23 -9 -69 18 -82 31 -16 64 -3 75 29 12 33 -9 64
-30 46 -20 -16 -18 -40 2 -32 12 4 15 2 12 -8 -6 -19 -35 -24 -53 -9 -21 18
-18 41 5 47 11 3 20 9 20 14 0 14 -36 10 -49 -5z"/>
<path d="M2520 660 c0 -5 5 -10 10 -10 6 0 10 5 10 10 0 6 -4 10 -10 10 -5 0
-10 -4 -10 -10z"/>
<path d="M2356 612 c-3 -5 1 -15 9 -22 25 -20 17 -29 -20 -23 -19 3 -35 1 -35
-4 0 -17 56 -76 69 -72 11 4 10 8 -3 21 -24 25 -20 30 19 22 27 -5 35 -3 35 8
0 19 -66 82 -74 70z"/>
<path d="M669 544 l-34 -36 30 -24 c17 -13 33 -24 38 -24 15 0 6 20 -13 30
-11 6 -20 16 -20 22 0 10 14 8 55 -7 18 -8 18 -6 -3 17 -13 14 -19 29 -14 32
5 3 15 -1 22 -9 7 -8 19 -15 28 -15 12 0 10 6 -8 25 -31 33 -40 32 -81 -11z"/>
<path d="M2280 537 c0 -7 16 -28 35 -47 43 -42 47 -19 5 28 -32 35 -40 39 -40
19z"/>
<path d="M2256 521 c-4 -5 -2 -21 4 -36 14 -37 13 -39 -15 -21 -30 19 -36 20
-60 2 -17 -12 -17 -15 15 -54 39 -48 62 -46 25 2 -35 47 -31 51 20 23 53 -30
62 -22 45 39 -13 46 -24 61 -34 45z"/>
<path d="M748 486 c-40 -50 -37 -81 3 -33 l18 22 1 -36 c0 -50 9 -54 42 -17
l29 33 -7 -52 c-3 -32 -2 -53 4 -53 5 0 26 14 47 30 21 17 39 30 42 30 2 0 -6
-18 -17 -41 -12 -23 -19 -44 -16 -47 8 -7 17 3 45 50 l22 37 -22 11 c-18 10
-26 8 -52 -10 l-30 -23 6 41 c9 51 -14 64 -50 30 l-24 -22 7 42 c8 53 -10 56
-48 8z"/>
<path d="M2120 381 c26 -52 33 -55 72 -34 26 13 29 18 15 21 -10 2 -24 -1 -31
-7 -10 -8 -17 -3 -32 24 -27 51 -50 47 -24 -4z"/>
<path d="M949 356 c-13 -25 -20 -49 -15 -53 4 -4 12 0 17 10 15 25 26 21 33
-13 7 -36 26 -40 26 -6 0 13 7 26 15 30 26 9 17 44 -15 61 -16 8 -31 15 -33
15 -2 0 -15 -20 -28 -44z m61 4 c8 -5 11 -12 8 -16 -10 -9 -38 3 -38 16 0 12
10 13 30 0z"/>
<path d="M1987 362 c-35 -16 -38 -19 -32 -47 11 -51 11 -59 -7 -63 -11 -2 -20
8 -29 32 -7 20 -19 36 -26 36 -9 0 -10 -6 -3 -26 19 -50 31 -64 54 -64 38 0
51 24 38 67 -15 50 -9 52 13 3 20 -45 41 -54 31 -14 -6 23 -5 26 13 20 12 -3
31 -9 44 -12 l22 -6 -23 21 c-13 11 -21 25 -18 30 10 15 -5 41 -23 40 -9 0
-33 -8 -54 -17z m53 -17 c0 -8 -6 -15 -14 -15 -20 0 -29 17 -14 23 22 9 28 7
28 -8z"/>
<path d="M1050 328 c-36 -39 -16 -90 35 -90 52 0 75 67 33 96 -30 21 -43 20
-68 -6z m63 -20 c7 -20 -12 -48 -33 -48 -22 0 -31 19 -18 43 10 20 44 23 51 5z"/>
<path d="M1156 308 c-3 -7 -9 -28 -15 -47 -7 -22 -8 -38 -2 -44 6 -6 12 0 17
17 8 35 20 33 28 -4 7 -38 32 -39 40 -2 3 15 8 37 12 50 4 13 2 22 -5 22 -6 0
-13 -11 -17 -25 -8 -31 -20 -25 -27 15 -7 30 -24 41 -31 18z"/>
<path d="M1797 292 c-35 -38 -10 -92 41 -92 50 0 69 53 32 90 -25 25 -52 26
-73 2z m62 -24 c11 -30 3 -48 -20 -48 -24 0 -40 29 -28 52 13 25 38 22 48 -4z"/>
<path d="M1246 259 c-9 -44 -8 -69 3 -69 5 0 12 10 14 23 4 19 4 18 6 -5 0
-18 7 -28 16 -28 8 0 15 4 15 8 0 5 6 16 13 27 13 16 14 15 9 -13 -7 -53 15
-36 25 19 9 43 8 52 -5 57 -9 3 -17 1 -19 -5 -2 -5 -10 -19 -18 -29 -13 -18
-14 -17 -15 14 0 45 -35 46 -44 1z"/>
<path d="M1366 254 c-3 -9 -6 -31 -6 -49 0 -35 13 -45 56 -45 32 0 31 18 -1
22 -14 2 -26 8 -26 13 0 6 12 11 26 13 32 4 33 22 0 22 -14 0 -25 5 -25 10 0
6 11 10 25 10 14 0 25 5 25 10 0 17 -67 12 -74 -6z"/>
<path d="M1467 264 c-10 -11 -9 -104 2 -104 5 0 11 12 13 28 l4 27 14 -27 c16
-34 39 -37 42 -5 0 12 2 27 3 32 2 6 3 16 4 23 0 6 7 12 15 12 9 0 16 -17 20
-45 4 -25 11 -45 17 -45 5 0 9 20 9 45 0 25 5 45 10 45 6 0 10 5 10 10 0 13
-51 13 -84 0 -17 -6 -26 -17 -26 -32 -1 -21 -2 -21 -13 -6 -7 9 -17 24 -22 33
-6 9 -13 13 -18 9z"/>
<path d="M1720 185 c0 -8 5 -15 10 -15 6 0 10 7 10 15 0 8 -4 15 -10 15 -5 0
-10 -7 -10 -15z"/>
<path d="M1680 180 c0 -5 5 -10 10 -10 6 0 10 5 10 10 0 6 -4 10 -10 10 -5 0
-10 -4 -10 -10z"/>
<path d="M1640 170 c0 -5 5 -10 10 -10 6 0 10 5 10 10 0 6 -4 10 -10 10 -5 0
-10 -4 -10 -10z"/>
</g>
</svg>
